<svg width="120" height="142" viewBox="0 0 120 142" fill="none" xmlns="http://www.w3.org/2000/svg">
<g id="watchmojo-logo">
<rect id="Rectangle 6" y="9" width="120" height="120" rx="60" fill="#0098BD"/>
<path id="W" d="M19.868 95L8.092 46.608H19.132L23.732 66.48C24.2227 68.6267 24.5907 70.896 24.836 73.288C25.1427 75.6187 25.3573 77.612 25.48 79.268C25.6027 80.8627 25.664 81.66 25.664 81.66H26.032C26.032 81.66 26.0933 80.8933 26.216 79.36C26.4 77.7653 26.6453 75.8027 26.952 73.472C27.2587 71.1413 27.6267 68.8413 28.056 66.572L32.196 46.608H43.236L47.376 66.664C47.6213 67.8293 47.8667 69.2707 48.112 70.988C48.3573 72.644 48.572 74.3 48.756 75.956C48.94 77.5507 49.0933 78.9 49.216 80.004C49.3387 81.108 49.4 81.66 49.4 81.66H49.768C49.768 81.66 49.8293 81.1387 49.952 80.096C50.136 79.0533 50.32 77.7653 50.504 76.232C50.7493 74.6373 51.0253 72.9813 51.332 71.264C51.6387 69.5467 51.9147 68.0133 52.16 66.664L56.392 46.608H66.604L54.92 95H43.788L39.004 71.908C38.6973 70.252 38.4213 68.504 38.176 66.664C37.992 64.824 37.8387 63.26 37.716 61.972C37.6547 60.6227 37.624 59.948 37.624 59.948H37.072C37.072 59.948 37.0107 60.592 36.888 61.88C36.8267 63.168 36.704 64.732 36.52 66.572C36.336 68.412 36.06 70.16 35.692 71.816L31 95H19.868Z" fill="white"/>
<path id="M" d="M98.132 46.6L109.908 94.992H98.868L94.268 75.12C93.7773 72.9733 93.4093 70.704 93.164 68.312C92.8573 65.9813 92.6427 63.988 92.52 62.332C92.3973 60.7373 92.336 59.94 92.336 59.94H91.968C91.968 59.94 91.9067 60.7066 91.784 62.24C91.6 63.8346 91.3547 65.7973 91.048 68.128C90.7413 70.4586 90.3733 72.7586 89.944 75.028L85.804 94.992H74.764L70.624 74.936C70.3787 73.7706 70.1333 72.3293 69.888 70.612C69.6427 68.956 69.428 67.3 69.244 65.644C69.06 64.0493 68.9067 62.7 68.784 61.596C68.6613 60.492 68.6 59.94 68.6 59.94H68.232C68.232 59.94 68.1707 60.4613 68.048 61.504C67.864 62.5466 67.68 63.8346 67.496 65.368C67.2507 66.9626 66.9747 68.6186 66.668 70.336C66.3613 72.0533 66.0853 73.5866 65.84 74.936L61.608 94.992H51.396L63.08 46.6H74.212L78.996 69.692C79.3027 71.348 79.5787 73.096 79.824 74.936C80.008 76.776 80.1613 78.34 80.284 79.628C80.3453 80.9773 80.376 81.652 80.376 81.652H80.928C80.928 81.652 80.9893 81.008 81.112 79.72C81.1733 78.432 81.296 76.868 81.48 75.028C81.664 73.188 81.94 71.44 82.308 69.784L87 46.6H98.132Z" fill="#42DBFB"/>
</g>
</svg>
